<?xml version="1.0" encoding="UTF-8"?>
<svg xmlns="http://www.w3.org/2000/svg" width="1024" height="1024" viewBox="0 0 1024 1024" role="img" aria-labelledby="title desc">
  <title id="title">Cellular app icon</title>
  <desc id="desc">A glowing Cellular cell with a C resource and E, L, L need pips.</desc>
  <defs>
    <style>
      .label {
        font-family: Helvetica, Arial, sans-serif;
        font-weight: 900;
        text-anchor: middle;
        dominant-baseline: central;
        fill: #ffffff;
        stroke: #071014;
        stroke-linejoin: round;
        paint-order: stroke fill;
      }
      .soft-ring { fill: none; stroke-linecap: round; }
    </style>
  </defs>

  <g id="glow" opacity="1">
    <circle cx="512" cy="535" r="405" fill="#36ffe5" opacity="0.10"/>
    <circle cx="512" cy="535" r="352" fill="#80c74d" opacity="0.16"/>
    <circle cx="318" cy="304" r="190" fill="#f2bd3d" opacity="0.18"/>
    <circle cx="706" cy="304" r="190" fill="#c775ea" opacity="0.18"/>
    <circle cx="512" cy="805" r="196" fill="#c775ea" opacity="0.18"/>
  </g>

  <g id="links" opacity="0.86">
    <path d="M392 382 C355 350 334 330 318 304" fill="none" stroke="#f2bd3d" stroke-width="34" stroke-linecap="round" opacity="0.24"/>
    <path d="M632 382 C669 350 690 330 706 304" fill="none" stroke="#c775ea" stroke-width="34" stroke-linecap="round" opacity="0.24"/>
    <path d="M512 660 C512 708 512 756 512 805" fill="none" stroke="#c775ea" stroke-width="34" stroke-linecap="round" opacity="0.24"/>
    <path d="M392 382 C355 350 334 330 318 304" fill="none" stroke="#ffffff" stroke-width="10" stroke-linecap="round" opacity="0.22"/>
    <path d="M632 382 C669 350 690 330 706 304" fill="none" stroke="#ffffff" stroke-width="10" stroke-linecap="round" opacity="0.22"/>
    <path d="M512 660 C512 708 512 756 512 805" fill="none" stroke="#ffffff" stroke-width="10" stroke-linecap="round" opacity="0.22"/>
  </g>

  <g id="cell">
    <circle cx="512" cy="548" r="306" fill="#02090a" opacity="0.36"/>
    <circle cx="512" cy="520" r="322" fill="#80c74d" opacity="0.16"/>
    <circle cx="512" cy="520" r="288" fill="#80c74d"/>
    <circle cx="415" cy="382" r="112" fill="#d8ffb8" opacity="0.34"/>
    <circle cx="565" cy="638" r="188" fill="#375f25" opacity="0.26"/>
    <circle cx="512" cy="520" r="289" fill="none" stroke="#071014" stroke-width="24" opacity="0.88"/>
    <circle cx="512" cy="520" r="259" fill="none" stroke="#f2fff0" stroke-width="18" opacity="0.72"/>
    <circle cx="512" cy="520" r="310" fill="none" stroke="#74ffd6" stroke-width="14" opacity="0.36"/>
    <circle cx="415" cy="380" r="68" fill="#ffffff" opacity="0.18"/>
    <text x="512" y="554" class="label" font-size="430" stroke-width="24">C</text>
  </g>

  <g id="pips">
    <g id="pip-e">
      <circle cx="318" cy="324" r="126" fill="#02090a" opacity="0.32"/>
      <circle cx="318" cy="304" r="140" fill="#f2bd3d" opacity="0.18"/>
      <circle cx="318" cy="304" r="104" fill="#f2bd3d"/>
      <circle cx="285" cy="264" r="42" fill="#fff3a2" opacity="0.42"/>
      <circle cx="352" cy="344" r="62" fill="#7a4b10" opacity="0.16"/>
      <circle cx="318" cy="304" r="106" fill="none" stroke="#071014" stroke-width="15" opacity="0.90"/>
      <circle cx="318" cy="304" r="88" fill="none" stroke="#ffffff" stroke-width="5" opacity="0.30"/>
      <circle cx="318" cy="304" r="122" class="soft-ring" stroke="#fff3a2" stroke-width="10" opacity="0.48"/>
      <text x="318" y="316" class="label" font-size="126" stroke-width="10">E</text>
    </g>
    <g id="pip-l-top">
      <circle cx="706" cy="324" r="126" fill="#02090a" opacity="0.32"/>
      <circle cx="706" cy="304" r="140" fill="#c775ea" opacity="0.18"/>
      <circle cx="706" cy="304" r="104" fill="#c775ea"/>
      <circle cx="673" cy="264" r="42" fill="#f0cbff" opacity="0.42"/>
      <circle cx="740" cy="344" r="62" fill="#593372" opacity="0.18"/>
      <circle cx="706" cy="304" r="106" fill="none" stroke="#071014" stroke-width="15" opacity="0.90"/>
      <circle cx="706" cy="304" r="88" fill="none" stroke="#ffffff" stroke-width="5" opacity="0.30"/>
      <circle cx="706" cy="304" r="122" class="soft-ring" stroke="#f0cbff" stroke-width="10" opacity="0.48"/>
      <text x="706" y="316" class="label" font-size="126" stroke-width="10">L</text>
    </g>
    <g id="pip-l-bottom">
      <circle cx="512" cy="825" r="130" fill="#02090a" opacity="0.34"/>
      <circle cx="512" cy="805" r="146" fill="#c775ea" opacity="0.20"/>
      <circle cx="512" cy="805" r="110" fill="#c775ea"/>
      <circle cx="477" cy="764" r="44" fill="#f0cbff" opacity="0.42"/>
      <circle cx="548" cy="848" r="64" fill="#593372" opacity="0.18"/>
      <circle cx="512" cy="805" r="112" fill="none" stroke="#071014" stroke-width="16" opacity="0.92"/>
      <circle cx="512" cy="805" r="92" fill="none" stroke="#ffffff" stroke-width="5" opacity="0.30"/>
      <circle cx="512" cy="805" r="129" class="soft-ring" stroke="#f0cbff" stroke-width="11" opacity="0.50"/>
      <text x="512" y="818" class="label" font-size="132" stroke-width="11">L</text>
    </g>
  </g>

  <g id="sparkles" opacity="0.92">
    <path d="M154 475 L178 466 L187 442 L197 466 L220 475 L197 484 L187 508 L178 484 Z" fill="#fff3a2" opacity="0.78"/>
    <path d="M839 475 L862 466 L872 442 L881 466 L905 475 L881 484 L872 508 L862 484 Z" fill="#f0cbff" opacity="0.74"/>
    <path d="M212 746 L229 739 L236 721 L243 739 L261 746 L243 753 L236 772 L229 753 Z" fill="#74ffd6" opacity="0.62"/>
    <path d="M802 746 L819 739 L826 721 L833 739 L851 746 L833 753 L826 772 L819 753 Z" fill="#74ffd6" opacity="0.62"/>
  </g>
</svg>
